<svg width="52" height="12" viewBox="0 0 52 12" fill="none" xmlns="http://www.w3.org/2000/svg">
<path d="M10.2267 0.485015L9.96208 0.257666C9.52281 -0.119812 8.86273 -0.0777352 8.47492 0.352318L4.04801 5.2609L2.71173 4.11001C2.27293 3.73211 1.61275 3.77334 1.22447 4.20293L0.990489 4.46183C0.800743 4.67167 0.702223 4.94847 0.71653 5.23122C0.730979 5.5138 0.857047 5.77909 1.06721 5.96876L3.51667 8.21184C3.72875 8.411 4.01296 8.51486 4.30347 8.49944C4.59397 8.48407 4.86557 8.35061 5.05534 8.13009L10.34 1.98973C10.5246 1.77519 10.6164 1.49614 10.5951 1.21398C10.5738 0.931613 10.4414 0.669442 10.2267 0.485015Z" fill="white"/>
<rect y="9" width="48" height="3" rx="1.09188" fill="white"/>
<path d="M13.3597 2.42071H11.1474V0.445833H18.1188V2.42071H15.9065V8H13.3597V2.42071ZM23.3327 6.68342H20.4621L19.9549 8H17.3649L20.6671 0.445833H23.1708L26.4731 8H23.8399L23.3327 6.68342ZM22.6312 4.84883L21.8974 2.9495L21.1636 4.84883H22.6312ZM29.4803 8.17267C28.8544 8.17267 28.2429 8.10432 27.6457 7.96762C27.0558 7.82374 26.5702 7.63308 26.1889 7.39567L27.009 5.5395C27.3687 5.74814 27.7716 5.91721 28.2177 6.04671C28.6637 6.16901 29.0918 6.23017 29.5019 6.23017C29.8544 6.23017 30.1062 6.19779 30.2573 6.13304C30.4084 6.0611 30.4839 5.95678 30.4839 5.82008C30.4839 5.66181 30.3832 5.5431 30.1818 5.46396C29.9875 5.38482 29.6638 5.29849 29.2105 5.20496C28.6278 5.08265 28.1421 4.95315 27.7536 4.81646C27.3651 4.67257 27.027 4.44235 26.7392 4.12579C26.4515 3.80204 26.3076 3.36678 26.3076 2.82C26.3076 2.34517 26.4407 1.9135 26.7069 1.525C26.973 1.1365 27.3687 0.830735 27.8939 0.607707C28.4263 0.38468 29.0702 0.273166 29.8256 0.273166C30.3436 0.273166 30.8509 0.330722 31.3473 0.445833C31.8509 0.553749 32.2933 0.715624 32.6746 0.931458L31.9084 2.77683C31.1674 2.40272 30.466 2.21567 29.8041 2.21567C29.1494 2.21567 28.822 2.37394 28.822 2.6905C28.822 2.84158 28.9191 2.95669 29.1134 3.03583C29.3076 3.10778 29.6278 3.18692 30.0739 3.27325C30.6494 3.38117 31.135 3.50707 31.5307 3.65096C31.9264 3.78765 32.2682 4.01428 32.5559 4.33083C32.8509 4.64739 32.9984 5.07906 32.9984 5.62583C32.9984 6.10067 32.8653 6.53233 32.5991 6.92083C32.3329 7.30214 31.9336 7.6079 31.4012 7.83812C30.876 8.06115 30.2357 8.17267 29.4803 8.17267ZM36.6161 5.49633L36.0441 6.13304V8H33.5404V0.445833H36.0441V3.18692L38.5262 0.445833H41.2996L38.278 3.76967L41.4507 8H38.5046L36.6161 5.49633ZM44.235 8.17267C43.6091 8.17267 42.9975 8.10432 42.4004 7.96762C41.8104 7.82374 41.3248 7.63308 40.9435 7.39567L41.7637 5.5395C42.1234 5.74814 42.5263 5.91721 42.9723 6.04671C43.4184 6.16901 43.8465 6.23017 44.2566 6.23017C44.6091 6.23017 44.8609 6.19779 45.012 6.13304C45.1631 6.0611 45.2386 5.95678 45.2386 5.82008C45.2386 5.66181 45.1379 5.5431 44.9364 5.46396C44.7422 5.38482 44.4184 5.29849 43.9652 5.20496C43.3824 5.08265 42.8968 4.95315 42.5083 4.81646C42.1198 4.67257 41.7817 4.44235 41.4939 4.12579C41.2061 3.80204 41.0622 3.36678 41.0622 2.82C41.0622 2.34517 41.1953 1.9135 41.4615 1.525C41.7277 1.1365 42.1234 0.830735 42.6486 0.607707C43.181 0.38468 43.8249 0.273166 44.5803 0.273166C45.0983 0.273166 45.6055 0.330722 46.1019 0.445833C46.6055 0.553749 47.048 0.715624 47.4293 0.931458L46.6631 2.77683C45.9221 2.40272 45.2206 2.21567 44.5587 2.21567C43.904 2.21567 43.5767 2.37394 43.5767 2.6905C43.5767 2.84158 43.6738 2.95669 43.8681 3.03583C44.0623 3.10778 44.3825 3.18692 44.8285 3.27325C45.4041 3.38117 45.8897 3.50707 46.2854 3.65096C46.6811 3.78765 47.0228 4.01428 47.3106 4.33083C47.6056 4.64739 47.7531 5.07906 47.7531 5.62583C47.7531 6.10067 47.62 6.53233 47.3538 6.92083C47.0876 7.30214 46.6883 7.6079 46.1559 7.83812C45.6307 8.06115 44.9904 8.17267 44.235 8.17267Z" fill="white"/>
<path d="M49.1467 0.625833H49.9471V2.37932H51.0189V3H49.1467V0.625833ZM49.6004 3.62583H50.4009V6H49.6004V3.62583ZM49.964 9.05427C49.7673 9.05427 49.5751 9.03279 49.3874 8.98982C49.202 8.9446 49.0494 8.88468 48.9295 8.81007L49.1873 8.2267C49.3004 8.29227 49.427 8.34541 49.5672 8.38611C49.7074 8.42455 49.8419 8.44377 49.9708 8.44377C50.0816 8.44377 50.1607 8.43359 50.2082 8.41324C50.2557 8.39063 50.2794 8.35784 50.2794 8.31488C50.2794 8.26514 50.2478 8.22783 50.1845 8.20296C50.1234 8.17809 50.0217 8.15095 49.8792 8.12156C49.6961 8.08312 49.5434 8.04242 49.4213 7.99946C49.2992 7.95424 49.193 7.88188 49.1025 7.78239C49.0121 7.68064 48.9669 7.54384 48.9669 7.372C48.9669 7.22277 49.0087 7.0871 49.0923 6.965C49.176 6.8429 49.3004 6.7468 49.4654 6.67671C49.6328 6.60661 49.8351 6.57157 50.0725 6.57157C50.2353 6.57157 50.3947 6.58966 50.5508 6.62583C50.709 6.65975 50.8481 6.71062 50.9679 6.77846L50.7271 7.35843C50.4942 7.24086 50.2738 7.18207 50.0658 7.18207C49.86 7.18207 49.7571 7.23181 49.7571 7.3313C49.7571 7.37878 49.7876 7.41496 49.8487 7.43983C49.9097 7.46244 50.0104 7.48732 50.1505 7.51445C50.3314 7.54837 50.4841 7.58794 50.6084 7.63316C50.7328 7.67612 50.8402 7.74734 50.9306 7.84683C51.0233 7.94632 51.0697 8.08199 51.0697 8.25383C51.0697 8.40307 51.0279 8.53873 50.9442 8.66083C50.8605 8.78067 50.735 8.87677 50.5677 8.94912C50.4027 9.01922 50.2014 9.05427 49.964 9.05427ZM49.5993 10.2465H48.904V9.62583H51.095V10.2465H50.3997V12H49.5993V10.2465Z" fill="white"/>
</svg>
