<svg width="46" height="12" viewBox="0 0 46 12" fill="none" xmlns="http://www.w3.org/2000/svg">
<path d="M10.2267 0.485015L9.96208 0.257666C9.52281 -0.119812 8.86273 -0.0777352 8.47492 0.352318L4.04801 5.2609L2.71173 4.11001C2.27293 3.73211 1.61275 3.77334 1.22447 4.20293L0.990489 4.46183C0.800743 4.67167 0.702223 4.94847 0.71653 5.23122C0.730979 5.5138 0.857047 5.77909 1.06721 5.96876L3.51667 8.21184C3.72875 8.411 4.01296 8.51486 4.30347 8.49944C4.59397 8.48407 4.86557 8.35061 5.05534 8.13009L10.34 1.98973C10.5246 1.77519 10.6164 1.49614 10.5951 1.21398C10.5738 0.931613 10.4414 0.669442 10.2267 0.485015Z" fill="white"/>
<rect y="9" width="42" height="3" rx="1.09188" fill="white"/>
<path d="M13.719 2.42071H11.5067V0.445833H18.4781V2.42071H16.2658V8H13.719V2.42071ZM23.692 6.68342H20.8214L20.3142 8H17.7242L21.0265 0.445833H23.5301L26.8324 8H24.1992L23.692 6.68342ZM22.9906 4.84883L22.2567 2.9495L21.5229 4.84883H22.9906ZM29.8396 8.17267C29.2137 8.17267 28.6022 8.10432 28.0051 7.96762C27.4151 7.82374 26.9295 7.63308 26.5482 7.39567L27.3683 5.5395C27.7281 5.74814 28.131 5.91721 28.577 6.04671C29.0231 6.16901 29.4511 6.23017 29.8612 6.23017C30.2138 6.23017 30.4656 6.19779 30.6166 6.13304C30.7677 6.0611 30.8433 5.95678 30.8433 5.82008C30.8433 5.66181 30.7425 5.5431 30.5411 5.46396C30.3468 5.38482 30.0231 5.29849 29.5698 5.20496C28.9871 5.08265 28.5015 4.95315 28.113 4.81646C27.7245 4.67257 27.3863 4.44235 27.0986 4.12579C26.8108 3.80204 26.6669 3.36678 26.6669 2.82C26.6669 2.34517 26.8 1.9135 27.0662 1.525C27.3324 1.1365 27.7281 0.830735 28.2533 0.607707C28.7857 0.38468 29.4296 0.273166 30.185 0.273166C30.703 0.273166 31.2102 0.330722 31.7066 0.445833C32.2102 0.553749 32.6527 0.715624 33.034 0.931458L32.2678 2.77683C31.5267 2.40272 30.8253 2.21567 30.1634 2.21567C29.5087 2.21567 29.1813 2.37394 29.1813 2.6905C29.1813 2.84158 29.2785 2.95669 29.4727 3.03583C29.667 3.10778 29.9871 3.18692 30.4332 3.27325C31.0087 3.38117 31.4944 3.50707 31.8901 3.65096C32.2858 3.78765 32.6275 4.01428 32.9153 4.33083C33.2102 4.64739 33.3577 5.07906 33.3577 5.62583C33.3577 6.10067 33.2246 6.53233 32.9584 6.92083C32.6922 7.30214 32.2929 7.6079 31.7606 7.83812C31.2354 8.06115 30.5951 8.17267 29.8396 8.17267ZM36.9754 5.49633L36.4034 6.13304V8H33.8998V0.445833H36.4034V3.18692L38.8855 0.445833H41.659L38.6373 3.76967L41.81 8H38.8639L36.9754 5.49633Z" fill="white"/>
<path d="M43.1467 0.625833H43.9471V2.37932H45.0189V3H43.1467V0.625833ZM43.6004 3.62583H44.4009V6H43.6004V3.62583ZM43.964 9.05427C43.7673 9.05427 43.5751 9.03279 43.3874 8.98982C43.202 8.9446 43.0494 8.88468 42.9295 8.81007L43.1873 8.2267C43.3004 8.29227 43.427 8.34541 43.5672 8.38611C43.7074 8.42455 43.8419 8.44377 43.9708 8.44377C44.0816 8.44377 44.1607 8.43359 44.2082 8.41324C44.2557 8.39063 44.2794 8.35784 44.2794 8.31488C44.2794 8.26514 44.2478 8.22783 44.1845 8.20296C44.1234 8.17809 44.0217 8.15095 43.8792 8.12156C43.6961 8.08312 43.5434 8.04242 43.4213 7.99946C43.2992 7.95424 43.193 7.88188 43.1025 7.78239C43.0121 7.68064 42.9669 7.54384 42.9669 7.372C42.9669 7.22277 43.0087 7.0871 43.0923 6.965C43.176 6.8429 43.3004 6.7468 43.4654 6.67671C43.6328 6.60661 43.8351 6.57157 44.0725 6.57157C44.2353 6.57157 44.3947 6.58966 44.5508 6.62583C44.709 6.65975 44.8481 6.71062 44.9679 6.77846L44.7271 7.35843C44.4942 7.24086 44.2738 7.18207 44.0658 7.18207C43.86 7.18207 43.7571 7.23181 43.7571 7.3313C43.7571 7.37878 43.7876 7.41496 43.8487 7.43983C43.9097 7.46244 44.0104 7.48732 44.1505 7.51445C44.3314 7.54837 44.4841 7.58794 44.6084 7.63316C44.7328 7.67612 44.8402 7.74734 44.9306 7.84683C45.0233 7.94632 45.0697 8.08199 45.0697 8.25383C45.0697 8.40307 45.0279 8.53873 44.9442 8.66083C44.8605 8.78067 44.735 8.87677 44.5677 8.94912C44.4027 9.01922 44.2014 9.05427 43.964 9.05427ZM43.5993 10.2465H42.904V9.62583H45.095V10.2465H44.3997V12H43.5993V10.2465Z" fill="white"/>
</svg>
